<svg t="1619875872741" class="icon" viewBox="0 0 1782 1024" version="1.1" xmlns="http://www.w3.org/2000/svg" p-id="1874" width="200" height="200"><path d="M3.463668 1.549536h1778.897309v1020.870545H3.463668z" fill="#1A7D3C" p-id="1875"></path><path d="M291.312702 236.562443h1203.168858v550.814348h-1203.168858z" fill="#2C609C" p-id="1876"></path><path d="M291.312702 236.562443v550.814348h1203.168858V236.562443h-1203.168858z m1191.015637 45.969557h-59.672314V248.715663h59.672314v33.816337z m-759.576299 12.153221h340.290182v434.568792h-340.290182V294.685221z m352.443403 0h335.307361v211.222977H1075.195443V294.685221z m0-12.153221V248.715663h335.307361v33.816337H1075.195443z m-12.153221 0h-340.290182V248.715663h340.290182v33.816337z m-352.443403 0H375.291458V248.715663h335.307361v33.816337z m0 12.153221v211.222977H375.291458V294.685221h335.307361z m-347.460582 211.222977H303.465923V294.685221h59.672314v211.222977z m-59.672314 12.153221h59.672314v211.222977H303.465923v-211.222977z m71.825535 0h335.307361v211.222977H375.291458v-211.222977z m335.307361 223.376198v33.816337H375.291458v-33.816337h335.307361z m12.153221 0h340.290182v33.816337h-340.290182v-33.816337z m352.443403 0h335.307361v33.816337H1075.195443v-33.816337z m0-12.153221v-211.222977h335.307361v211.222977H1075.195443z m347.490965-211.222977h59.672314v211.222977h-59.672314v-211.222977z m59.641931-12.153221h-59.672314V294.685221h59.672314v211.222977zM363.138237 248.715663v33.816337H303.465923V248.715663h59.672314zM303.465923 741.437617h59.672314v33.816337H303.465923v-33.816337z m1119.220485 33.816337v-33.816337h59.672314v33.816337h-59.672314z" fill="#FFFFFF" p-id="1877"></path><path d="M894.416283 815.23805h-3.038305v-35.669703h3.038305v35.669703z m0-71.339406h-3.038305V708.228941h3.038305v35.669703z m0-71.369789h-3.038305v-35.669703h3.038305v35.669703z m0-71.339406h-3.038305v-35.669703h3.038305v35.669703z m0-71.369789h-3.038305v-35.669703h3.038305v35.669703z m0-71.339406h-3.038305v-35.669703h3.038305v35.669703z m0-71.369789h-3.038305v-35.669703h3.038305v35.669703z m0-71.339406h-3.038305V280.070973h3.038305v35.700086z m0-71.369789h-3.038305V208.731567h3.038305v35.669703z" fill="#FFFFFF" opacity=".5" p-id="1878"></path></svg>